<svg width="160" height="89" viewBox="0 0 160 89" fill="none" xmlns="http://www.w3.org/2000/svg">
<path d="M0 73.0055C0 74.9962 0.719816 76.5014 2.15914 77.5217C3.59862 78.5418 5.13727 78.9025 6.77524 78.6041C8.31389 78.3055 9.39346 77.758 10.0141 76.9618C10.6344 76.1656 10.9448 74.8468 10.9448 73.0055V51.3577C10.9448 49.8148 10.4112 48.5085 9.34402 47.4386C8.27696 46.3686 6.97403 45.8337 5.43523 45.8337C3.94617 45.8337 2.66811 46.3686 1.6009 47.4386C0.533683 48.5085 0 49.8148 0 51.3577V73.0055ZM17.1242 82.2618C17.1242 83.7052 17.633 84.7875 18.6505 85.5092C19.6681 86.2309 20.9711 86.5916 22.5593 86.5916C24.1973 86.5916 25.5249 86.2307 26.5426 85.5092C27.56 84.7876 28.0688 83.7052 28.0688 82.2618V31.7999C28.0688 30.307 27.5352 29.0254 26.4681 27.9556C25.4009 26.8857 24.098 26.3507 22.5593 26.3507C21.0702 26.3507 19.792 26.8857 18.725 27.9556C17.6578 29.0256 17.1242 30.307 17.1242 31.7999V82.2618ZM34.174 84.6505C34.174 86.0938 34.6952 87.1762 35.7375 87.8979C36.7799 88.6194 38.12 88.9803 39.7581 88.9803C41.3464 88.9803 42.6493 88.6194 43.6668 87.8979C44.6844 87.1762 45.1932 86.0938 45.1932 84.6505V38.5929C45.1932 37.0502 44.6595 35.7313 43.5925 34.6366C42.5253 33.5418 41.2472 32.9945 39.7581 32.9945C38.2193 32.9945 36.9041 33.5418 35.8121 34.6366C34.7202 35.7313 34.1742 37.0502 34.1742 38.5929L34.174 84.6505ZM51.2982 84.8745C51.2982 87.6117 53.1347 88.9803 56.8078 88.9803C60.4807 88.9803 62.3171 87.6117 62.3171 84.8745V10.2267C62.3171 6.04647 61.0514 3.68267 58.52 3.13521C56.8821 2.73703 55.2688 3.20985 53.6806 4.55351C52.0922 5.89717 51.2981 7.78815 51.2981 10.2267L51.2982 84.8745ZM68.7204 87.0393V5.82253C68.7204 3.23479 69.4897 1.69212 71.0285 1.19436C74.354 0.398172 77.6548 0 80.9307 0C88.5248 0 95.598 1.79155 102.15 5.37464C108.702 8.95773 114 13.8472 118.046 20.0429C122.091 26.2388 124.436 33.069 125.081 40.5339C128.109 39.2399 131.335 38.593 134.76 38.593C141.709 38.593 147.653 41.0564 152.592 45.9832C157.53 50.9101 160 56.832 160 63.7495C160 70.7167 157.53 76.6636 152.592 81.5903C147.653 86.5171 141.734 88.9804 134.835 88.9804L70.0603 88.9058C69.6134 88.7565 69.2784 88.4827 69.055 88.0847C68.8316 87.6866 68.7204 87.3379 68.7204 87.0393Z" fill="white"/>
</svg>
